<svg width="351" height="369" xmlns="http://www.w3.org/2000/svg" xmlns:xlink="http://www.w3.org/1999/xlink">
 <defs>
  <path d="m0,0.05l36.24,0l0,58.395l-36.24,0l0,-58.395z" id="c"/>
  <path d="m0.458,0.334l86.726,0l0,87.216l-86.726,0l0,-87.216z" id="e"/>
  <path id="g" d="m1.4,111.988c-2.468,9.321 3.114,18.962 12.411,21.435l119.09,31.694c9.299,2.474 18.916,-3.122 21.384,-12.443l29.564,-111.632l-152.035,-40.46l-0.85,-0.226l-29.564,111.632z"/>
  <linearGradient id="a" y2="72.798%" x2="61.487%" y1="32.622%" x1="23.05%">
   <stop offset="0%" stop-opacity="0.965" stop-color="#455A64"/>
   <stop offset="100%" stop-color="#2A253C"/>
  </linearGradient>
  <linearGradient id="svg_45" y2="NaN" x2="NaN" y1="NaN" x1="NaN">
   <stop offset="0%" stop-opacity="0" stop-color="#FFF"/>
   <stop offset="100%" stop-opacity="0.2" stop-color="#FFF"/>
  </linearGradient>
  <linearGradient id="svg_46" y2="NaN" x2="NaN" y1="NaN" x1="NaN">
   <stop offset="0%" stop-opacity="0" stop-color="#FFF"/>
   <stop offset="100%" stop-opacity="0.2" stop-color="#FFF"/>
  </linearGradient>
  <linearGradient id="svg_47" y2="NaN" x2="NaN" y1="NaN" x1="NaN">
   <stop offset="0%" stop-opacity="0" stop-color="#FFF"/>
   <stop offset="100%" stop-opacity="0.2" stop-color="#FFF"/>
  </linearGradient>
 </defs>
 <g>
  <title>background</title>
  <rect fill="none" id="canvas_background" height="402" width="582" y="-1" x="-1"/>
 </g>
 <g>
  <title>Layer 1</title>
  <g stroke="null" id="svg_1" fill-rule="evenodd" fill="none">
   <g stroke="null" id="svg_2">
    <circle stroke="null" id="svg_3" r="127.252037" cy="218.248972" cx="154.25204" fill="url(#a)"/>
    <path stroke="url(#svg_47)" id="svg_4" stroke-linecap="square" stroke-width="15" d="m212.439351,252.020685l-71.26027,72.659687"/>
    <path stroke="url(#svg_46)" id="svg_5" stroke-linecap="square" stroke-width="22" d="m193.687978,229.583516l-71.26027,72.659687"/>
    <path stroke="url(#svg_45)" id="svg_6" stroke-linecap="square" stroke-width="35" d="m144.878963,251.801158l-71.26027,72.659687"/>
    <circle stroke="null" id="svg_7" r="5.229536" cy="197.808742" cx="53.147681" opacity="0.05" fill="#FFF"/>
    <circle stroke="null" id="svg_8" r="3.922152" cy="311.118715" cx="147.71512" opacity="0.191" fill="#FFF"/>
    <circle stroke="null" id="svg_9" r="3.922152" cy="286.234956" cx="231.387694" opacity="0.405" fill="#FFF"/>
    <circle stroke="null" id="svg_10" r="2.614768" cy="268.905195" cx="72.322646" opacity="0.456" fill="#FFF"/>
   </g>
   <path stroke="null" id="svg_11" fill="#757575" d="m83.566148,182.596767l0.608369,11.410981c0.101104,1.892943 1.57932,3.81788 3.284148,4.280895l5.682762,1.541904l18.356542,4.981195l5.682762,1.541016c1.706572,0.463016 3.92651,-0.459461 4.933195,-2.051133l6.077592,-9.596244l-44.625372,-12.108615z"/>
   <path stroke="null" id="svg_12" opacity="0.2" fill="#000" d="m102.320135,202.3207l9.177835,2.491042l5.682762,1.541904c1.706572,0.462127 3.925638,-0.46035 4.933195,-2.052021l6.076721,-9.596244l-22.32053,-6.056529"/>
   <path stroke="null" id="svg_13" d="m83.557432,182.594989l19.950679,-91.444259l52.379031,14.211292l-27.703466,89.341581" fill="#F3F3F3"/>
   <path stroke="null" id="svg_14" fill="#5BC348" d="m158.466175,95.452955l-0.001743,0.00711c0.001743,-0.00711 -0.00523,-0.009776 -0.00523,-0.009776l0.006973,0.002666z"/>
   <path stroke="null" id="svg_15" fill="#C6C6C5" d="m158.459202,95.450289s0.006973,0.002666 0.00523,0.008887a8.611302,8.780412 0 0 0 -2.837895,4.527067a8.648781,8.818626 0 0 0 0.260605,5.376669l-52.379031,-14.212181a8.69759,8.868394 0 0 0 2.841381,-4.534176a8.676672,8.847065 0 0 0 -0.26322,-5.367782c0.001743,-0.008887 0.010459,-0.006221 0.010459,-0.006221l52.362471,14.207738z"/>
   <path stroke="null" id="svg_16" fill="#F3F3F3" d="m158.459202,95.450289l-52.362471,-14.207738c5.402111,-20.405571 18.03144,-32.826121 33.564904,-36.56935c0.913426,-0.22662 1.885248,-0.259502 2.858813,-0.138638c0.36171,0.046213 0.733878,0.113754 1.106047,0.214178c0.364324,0.099535 0.719933,0.231063 1.064211,0.374145c0.895122,0.386587 1.724875,0.89937 2.40733,1.560567c11.672324,11.123929 16.59506,28.306164 11.361167,48.766835"/>
   <path stroke="null" id="svg_17" fill="#5BC348" d="m106.096731,81.242551s-0.008716,-0.001777 -0.010459,0.006221l0.001743,-0.007998l0.008716,0.001777z"/>
   <path stroke="null" id="svg_18" d="m129.697626,98.255932l26.189515,7.106091l-27.704338,89.341581l-22.312686,-6.054752" fill="#C6C6C5"/>
   <path stroke="null" id="svg_19" fill="#D3DDE2" d="m158.466175,95.452955l-0.001743,0.00711c0.001743,-0.00711 -0.00523,-0.009776 -0.00523,-0.009776l0.006973,0.002666z"/>
   <path stroke="null" id="svg_20" opacity="0.2" fill="#000" d="m132.275788,88.354863l0.000872,-0.008887l26.182543,7.104313s0.006973,0.002666 0.004358,0.009776a8.62089,8.790188 0 0 0 -2.837895,4.527067a8.646166,8.81596 0 0 0 0.261477,5.374892l-26.189515,-7.106091"/>
   <path stroke="null" id="svg_21" fill="#C6C6C5" d="m143.625623,44.748741c0.364324,0.099535 0.720804,0.229286 1.065082,0.375034c0.895122,0.386587 1.724875,0.898481 2.408201,1.55879c11.670581,11.124818 16.59506,28.307053 11.359423,48.767724l-26.182543,-7.104313"/>
   <path stroke="null" id="svg_22" fill="#1967D2" d="m109.305051,192.177014c-0.012202,0.03466 -0.023533,0.071096 -0.036607,0.104867c-0.013074,0.035548 -0.023533,0.071096 -0.037478,0.104867a4.339643,4.424866 0 0 1 -5.198159,2.784315a4.346616,4.431975 0 0 1 -3.157768,-5.056735c0.00523,-0.035548 0.012202,-0.071985 0.019175,-0.109311c0.00523,-0.036437 0.013074,-0.072874 0.019175,-0.109311l11.598239,-65.707342c0.052295,-0.346595 0.122023,-0.694079 0.213539,-1.041563c1.397158,-5.36956 6.794039,-8.567123 12.054952,-7.138973c5.260041,1.427261 8.389919,6.937236 6.992761,12.307685c-0.090645,0.349261 -0.200466,0.686969 -0.322488,1.016679l-22.146213,62.844822l0.000872,0z"/>
   <path stroke="null" id="svg_23" opacity="0.2" fill="#000" d="m124.910858,116.043376c5.260041,1.427261 8.39079,6.937236 6.992761,12.308574c-0.090645,0.348373 -0.200466,0.686081 -0.322488,1.015791l-22.144469,62.844822c-0.013074,0.035548 -0.023533,0.071096 -0.037478,0.104867c-0.012202,0.035548 -0.023533,0.071096 -0.036607,0.104867a4.340515,4.425754 0 0 1 -5.198159,2.784315"/>
   <g stroke="null" id="svg_24">
    <mask stroke="null" transform="translate(-18,-21) translate(62,210.1179962158203) translate(350.4381103515625,0.6075477600097656) scale(1.1312642097473145,1) translate(-350.4381103515625,-0.6075477600097656) translate(309.7756652832031,369) scale(0.8715893030166626,0.8887056708335876) translate(-309.7756652832031,-369) " id="d">
     <use stroke="null" id="svg_25" xlink:href="#c"/>
    </mask>
    <path stroke="null" id="svg_26" mask="url(#d)" fill="#E37400" d="m70.529382,207.607607c-29.534578,-7.082984 -24.196386,37.151452 -16.244313,50.180766l-0.001972,-0.011553a1.838886,1.657436 0 0 0 2.738116,0.656753l-0.007888,0.008887c13.442108,-7.40203 44.365956,-43.434601 13.516058,-50.833076"/>
   </g>
   <path stroke="null" id="svg_27" fill="#FBBC04" d="m69.905246,210.000006c-18.798048,-4.508404 -14.499097,20.587756 -9.205275,28.086654l-0.001972,-0.005332c0.332281,0.542999 1.156575,0.740292 1.743244,0.417692l-0.003944,0.005332c8.331681,-3.95474 27.103107,-23.795094 7.467947,-28.504346"/>
   <path stroke="null" id="svg_28" fill="#78C257" d="m327.427161,143.498161c6.715631,-6.105408 6.676191,-15.949601 -0.08874,-22.010573c-6.765917,-6.060973 -17.673024,-6.025424 -24.388655,0.079984l-54.730765,49.754187c-6.715631,6.105408 -6.675205,15.949601 0.08874,22.011462c6.764931,6.060973 17.673024,6.025424 24.388655,-0.079984l54.730765,-49.755076z"/>
   <g stroke="null" id="svg_29">
    <mask stroke="null" transform="translate(-18,-21) translate(177.04800415039062,194.4510040283203) translate(350.4381103515625,0.6075477600097656) scale(1.1312642097473145,1) translate(-350.4381103515625,-0.6075477600097656) translate(309.7756652832031,369) scale(0.8715893030166626,0.8887056708335876) translate(-309.7756652832031,-369) " id="f">
     <use stroke="null" id="svg_30" xlink:href="#e"/>
    </mask>
    <path stroke="null" id="svg_31" mask="url(#f)" fill="#78C257" d="m242.42824,219.707342c6.714645,-6.105408 6.675205,-15.949601 -0.08874,-22.010573c-6.765917,-6.060973 -17.673024,-6.025424 -24.389641,0.079984l-51.010595,46.372662c-6.715631,6.105408 -6.677177,15.949601 0.08874,22.010573c6.764931,6.060973 17.672038,6.025424 24.388655,-0.079984l51.011581,-46.372662z"/>
   </g>
   <path stroke="null" id="svg_32" fill="#78C257" d="m186.16523,212.969172c6.587451,-5.988988 6.714645,-15.497249 0.281995,-21.260506c-6.43265,-5.763256 -16.968036,-5.581072 -23.555487,0.408805l-50.038402,45.487511c-6.586465,5.989876 -6.713659,15.497249 -0.280023,21.260506c6.43265,5.763256 16.96705,5.581072 23.555487,-0.408805l50.03643,-45.487511z"/>
   <path stroke="null" id="svg_33" d="m142.7833,89.075603l-4.459668,14.166857l152.127626,31.643254l2.81108,-9.861078l-150.479038,-35.949033z" fill="#FFF"/>
   <path stroke="null" id="svg_34" fill="#78C257" d="m141.129781,96.751354l-0.838098,-0.199959l-29.162856,99.137784c-2.435415,8.277405 3.071383,16.838306 12.243134,19.036075l117.471776,28.145309c9.171751,2.197769 18.65705,-2.771873 21.093451,-11.049278l29.16187,-99.137784l-149.970263,-35.932148l0.000986,0zm0.939656,-5.47887l150.512562,36.061899l2.135671,-7.257171c0.359889,-2.138226 0.614277,-4.221352 0.742456,-6.335583c1.035298,-18.605942 -8.172936,-36.834184 -24.346257,-49.973697l17.153403,-16.403729a2.833758,2.55414 0 0 0 -0.110432,-3.587705a2.824884,2.546142 0 0 0 -3.973571,0.100424l-17.346659,16.599245c-8.791156,-6.232493 -19.256537,-11.046611 -30.982022,-13.85581c-11.809295,-2.829639 -23.637325,-3.31665 -34.74952,-1.812071l-5.958385,-22.263854c-0.367777,-1.341946 -1.907906,-2.19688 -3.395776,-1.865393c-1.488857,0.330599 -2.435415,1.724089 -2.067637,3.065146l5.889365,22.045233c-20.256338,4.088046 -37.573418,14.949807 -47.155344,30.455943a62.441268,56.279953 0 0 0 -5.789779,12.975991a43.398692,39.11638 0 0 0 -0.569907,2.088458l0.011832,-0.037326z"/>
   <path stroke="null" id="svg_35" fill="#FFF" d="m264.316401,81.155458c3.894691,0.933141 6.231506,4.567947 5.19818,8.083667c-1.034312,3.513942 -5.062113,5.623729 -8.956804,4.691477c-3.894691,-0.933141 -6.231506,-4.567947 -5.199166,-8.082778c1.035298,-3.51572 5.062113,-5.625507 8.95779,-4.692366m-70.164588,-16.828531c3.894691,0.933141 6.233478,4.567947 5.19818,8.082778c-1.034312,3.51572 -5.062113,5.625507 -8.955818,4.692366c-3.894691,-0.933141 -6.233478,-4.567947 -5.199166,-8.082778c1.035298,-3.514831 5.062113,-5.625507 8.956804,-4.692366"/>
   <path stroke="null" id="svg_36" d="m267.372008,213.364646l-146.245163,-35.076324l4.819557,-16.363738l146.243191,35.076324l-4.817585,16.363738z" opacity="0.1" fill="#000"/>
   <path stroke="null" id="svg_37" d="m274.039325,210.726079l-151.746045,-36.395163l4.818571,-16.362849l151.745059,36.395163l-4.817585,16.362849z" fill="#F3F3F3"/>
   <g stroke="null" id="svg_38">
    <mask stroke="null" transform="translate(-18,-21) translate(125,86) translate(350.4381103515625,0.6075477600097656) scale(1.1312642097473145,1) translate(-350.4381103515625,-0.6075477600097656) translate(309.7756652832031,369) scale(0.8715893030166626,0.8887056708335876) translate(-309.7756652832031,-369) " id="h">
     <use stroke="null" id="svg_39" xlink:href="#g"/>
    </mask>
    <path stroke="null" id="svg_40" mask="url(#h)" opacity="0.1" fill="#000" d="m153.824503,148.962812l-29.427104,43.493256c-14.351198,16.198438 -32.296357,-7.671307 -32.296357,-7.671307l34.915168,-42.190413l26.80928,6.368465l-0.000986,0z"/>
   </g>
   <path stroke="null" id="svg_41" fill="#78C257" d="m169.263256,134.576444c6.678163,-6.104519 6.639709,-15.946046 -0.08874,-22.00613a17.06072,15.377274 0 0 0 -24.253573,0.079984l-54.430036,49.744411c-6.680135,6.103631 -6.639709,15.945157 0.086768,22.005241a17.061706,15.378163 0 0 0 24.255545,-0.079984l54.430036,-49.743523z"/>
  </g>
 </g>
</svg>